<svg xmlns="http://www.w3.org/2000/svg" version="1.1" xmlns:xlink="http://www.w3.org/1999/xlink" width="512" height="512" x="0" y="0" viewBox="0 0 64 64" style="enable-background:new 0 0 512 512" xml:space="preserve" class=""><g><g data-name="35 Job offer"><path fill="#bdbdbd" d="M8.05 2.027C5.712 2.307 4 4.875 4 7.746V14a2.769 2.769 0 0 0 2.455 3H13V7.5c0-3.214-2.268-5.793-4.95-5.473z" opacity="1" data-original="#bdbdbd" class=""></path><path fill="#eeeeee" d="M50 2H9.487a.984.984 0 0 0-.325.066C11.329 2.459 13 4.743 13 7.5v46.216A8.297 8.297 0 0 0 21.291 62H52a1 1 0 0 0 1-1V5a3.003 3.003 0 0 0-3-3z" opacity="1" data-original="#eeeeee" class=""></path><path fill="#bdbdbd" d="M58.92 51H28.065a1 1 0 0 0-.999.935c-.263 4.073-.28 8.663-5.43 10.065h30.857a.963.963 0 0 0 .242-.03c5.903-1.476 6.94-6.07 7.185-9.906A1.006 1.006 0 0 0 58.92 51z" opacity="1" data-original="#bdbdbd" class=""></path><rect width="32" height="13" x="17" y="6" fill="#44bb92" rx="3" opacity="1" data-original="#e53935" class=""></rect><g fill="#e0e0e0"><path d="M24.927 16.208a2.337 2.337 0 0 1-2.326-2.441.997.997 0 0 1 1.993-.036c.127.581.23.643.47.643.171-.001.48-.001.48-.86V9.983a1.053 1.053 0 1 1 2.093.04l.002 3.306a2.504 2.504 0 0 1-2.712 2.88zM32.665 8.792a3.438 3.438 0 0 0-3.722 3.695 3.535 3.535 0 1 0 7.063.011 3.436 3.436 0 0 0-3.341-3.706zm.763 5.17a1.331 1.331 0 0 1-1.914-.007 2.502 2.502 0 0 1-.011-2.915 1.35 1.35 0 0 1 1.935 0 2.5 2.5 0 0 1-.01 2.922zM38.482 16.094a1.061 1.061 0 0 1-1.184-1.19V10.1a1.06 1.06 0 0 1 1.182-1.193c1.035.072 2.73-.223 3.67.331a1.954 1.954 0 0 1 .417 3.006 2.112 2.112 0 0 1-.42 3.594 12.376 12.376 0 0 1-3.665.256zm1.899-1.773c.911 0 .911-.354.911-.545-.008-.305-.076-.499-.963-.52l-.937.001v1.064zm-.099-2.79c.737 0 .747-.29.754-.465-.012-.283-.039-.342-.838-.38-.117-.012-.678-.008-.806-.008v.851z" fill="#e0e0e0" opacity="1" data-original="#e0e0e0"></path></g><g fill="#616161"><path d="M48 32H33a1 1 0 0 1 0-2h15a1 1 0 0 1 0 2zM41 24H25a1 1 0 0 1 0-2h16a1 1 0 0 1 0 2zM43 27H23a1 1 0 0 1 0-2h20a1 1 0 0 1 0 2zM48 35H33a1 1 0 0 1 0-2h15a1 1 0 0 1 0 2zM48 39H33a1 1 0 0 1 0-2h15a1 1 0 0 1 0 2zM48 42H33a1 1 0 0 1 0-2h15a1 1 0 0 1 0 2z" fill="#616161" opacity="1" data-original="#616161" class=""></path></g><path fill="#30e2a5" d="M19.5 35h9c3.242.046 3.244-5.045 0-5h-9a2.5 2.5 0 0 0 0 5zM19.476 42h9.048c3.187.06 3.237-5.05 0-5h-9.048a2.5 2.5 0 0 0 0 5zM28.524 44h-9.048a2.5 2.5 0 0 0 0 5h9.048c3.187.06 3.237-5.05 0-5z" opacity="1" data-original="#ffa000" class=""></path><path fill="#616161" d="M48 46H33a1 1 0 0 1 0-2h15a1 1 0 0 1 0 2zM48 49H33a1 1 0 0 1 0-2h15a1 1 0 0 1 0 2z" opacity="1" data-original="#616161" class=""></path></g></g></svg>